<svg xmlns="http://www.w3.org/2000/svg" viewBox="0 0 400 320" role="img" aria-label="Cute cat with heart">
  <defs>
    <linearGradient id="bg1" x1="0" x2="1" y1="0" y2="1">
      <stop offset="0" stop-color="#ffe0ec" />
      <stop offset="1" stop-color="#ffd0e0" />
    </linearGradient>
  </defs>
  <rect width="400" height="320" rx="30" fill="url(#bg1)" />
  <circle cx="200" cy="170" r="90" fill="#f4b78a" />
  <polygon points="135,110 165,50 195,118" fill="#f4b78a" />
  <polygon points="205,118 235,50 265,110" fill="#f4b78a" />
  <polygon points="147,105 164,68 182,108" fill="#f9d7bf" />
  <polygon points="218,108 236,68 253,105" fill="#f9d7bf" />
  <ellipse cx="170" cy="172" rx="10" ry="14" fill="#4f3044" />
  <ellipse cx="230" cy="172" rx="10" ry="14" fill="#4f3044" />
  <path d="M188 198 Q200 214 212 198" stroke="#4f3044" stroke-width="5" fill="none" stroke-linecap="round"/>
  <circle cx="145" cy="200" r="12" fill="#ff9cbe" opacity="0.65" />
  <circle cx="255" cy="200" r="12" fill="#ff9cbe" opacity="0.65" />
  <path d="M200 110 C210 90 242 90 250 110 C258 128 242 145 200 176 C158 145 142 128 150 110 C158 90 190 90 200 110 Z" fill="#ff4f90" />
</svg>
