<svg xmlns="http://www.w3.org/2000/svg" viewBox="0 0 400 320" role="img" aria-label="Cute cat with heart">
  <defs>
    <linearGradient id="bg2" x1="0" x2="1" y1="0" y2="1">
      <stop offset="0" stop-color="#ffeef4" />
      <stop offset="1" stop-color="#ffdbe8" />
    </linearGradient>
  </defs>
  <rect width="400" height="320" rx="30" fill="url(#bg2)" />
  <circle cx="200" cy="172" r="92" fill="#fff3f8" />
  <polygon points="134,112 164,50 194,120" fill="#fff3f8" />
  <polygon points="206,120 236,50 266,112" fill="#fff3f8" />
  <polygon points="148,105 164,68 181,108" fill="#ffd6e6" />
  <polygon points="219,108 236,68 252,105" fill="#ffd6e6" />
  <ellipse cx="170" cy="174" rx="10" ry="13" fill="#5f2340" />
  <ellipse cx="230" cy="174" rx="10" ry="13" fill="#5f2340" />
  <path d="M184 198 Q200 214 216 198" stroke="#5f2340" stroke-width="5" fill="none" stroke-linecap="round"/>
  <path d="M130 225 C145 210 175 216 183 233 C168 238 146 240 130 225 Z" fill="#ff8fb8" />
  <path d="M270 225 C255 210 225 216 217 233 C232 238 254 240 270 225 Z" fill="#ff8fb8" />
  <path d="M200 145 C212 122 240 125 246 145 C251 163 238 175 200 205 C162 175 149 163 154 145 C160 125 188 122 200 145 Z" fill="#ff5a9c" />
</svg>
